<svg id="Layer_1" data-name="Layer 1" xmlns="http://www.w3.org/2000/svg" viewBox="0 0 244 153"><defs><style>.cls-1{fill:#fff;}</style></defs><title>Icons</title><path class="cls-1" d="M189,7.59l1,3.79.42,1.54L191.61,14l3,3-2.57,3.84-1.15,1.72.16,2.06.51,6.84.11,1.49.81,1.27,4.73,7.47.87,1.37,1.45.75L205,46.69l1,.5,1.07.13,2.86.35.84,1.68.23,2.77.3,3.7,3.45,1.37,2.94,1.18,1,1.19.64,2,.51,1.62,1.28,1.12,6.77,5.87.72,2.28-1.2,5.16L224,85l-.23.5-.13.54-.94,3.72-3.08,2.35-2.7.84-10.62,2.81-3.14.82-1,3.08-2.58,7.74-.73,2.21.94,2.12,1,2.3.53,1.19,1,.87,2,1.73-.24,4.29-2.15,1.58-1.4,1-.63,1.62-1,2.59-.41,1.05v3.23h0l-1.2.34-1,.8-2.51,2.06-1.43,1.17-.51,1.78-.62,2.09-.24.81-.86-1-1.94-3.89-1.84-3.68-4.11.39-15.58,1.5-21,1.27L43.73,139.32l-2.4-6.46-.8-13.34,0-.78-.25-.75-2.75-8.26L36.12,99.59,36,98.38l-.63-1.06-4.09-6.88-2-9.22-.07-.36L29,80.52l-5.55-16-2.16-11-.26-1.32-.8-1.08-2.39-3.24-2-4.49L18.75,37l.27-.62.14-.67,2.16-11L22,21.15l-2.79-2.28-3.43-2.79L15.4,13l.72-2.46,1.53-.26L146.67,9h.14L189,7.59m2.54-6.09h-.16L146.61,3,17.35,4.26a3,3,0,0,0-.43,0l-3.8.64a2.72,2.72,0,0,0-2.18,1.93L9.46,11.94a2.61,2.61,0,0,0-.09,1.11L10,18.13a2.76,2.76,0,0,0,1,1.78l4.44,3.62-2.16,11L9.79,42.27a2.81,2.81,0,0,0,0,2.24l2.76,6.14a2.58,2.58,0,0,0,.29.51l2.6,3.52,2.21,11.25a2.49,2.49,0,0,0,.09.37l5.63,16.19,2.11,9.73a2.66,2.66,0,0,0,.33.82l4.37,7.35,1.4,10.44a2.91,2.91,0,0,0,.12.51l2.84,8.54.83,13.81a2.72,2.72,0,0,0,.17.8l3.38,9.1a2.81,2.81,0,0,0,2.63,1.78l104.19-2.54L167,141.54,182.7,140l2.12,4.24a3.33,3.33,0,0,0,.36.56l4.86,5.71a2.75,2.75,0,0,0,2.09,1,2.7,2.7,0,0,0,1.67-.57l2.75-2.11a2.76,2.76,0,0,0,1-2.8l-.68-2.89.61-2.1L200,139l2.42-.69a2.74,2.74,0,0,0,2-2.63v-4.57l1-2.59,3.38-2.49a2.73,2.73,0,0,0,1.11-2l.43-7.4a2.76,2.76,0,0,0-.93-2.21l-3.15-2.78-1-2.29,2.59-7.74,10.75-2.84L222,97.63a2.63,2.63,0,0,0,.83-.43l4.45-3.39a2.77,2.77,0,0,0,1-1.52l1.21-4.82,3.49-7.61a2.9,2.9,0,0,0,.18-.52L234.58,73a2.85,2.85,0,0,0-.05-1.45l-1.27-4a2.82,2.82,0,0,0-.82-1.25L225,59.82l-.83-2.65a2.68,2.68,0,0,0-.49-.91l-1.91-2.33a2.68,2.68,0,0,0-1.1-.81l-3.72-1.5-.29-3.39a2.86,2.86,0,0,0-.27-1l-1.91-3.81a2.76,2.76,0,0,0-2.11-1.5l-4.59-.57-5.47-2.82-4.74-7.47-.51-6.84,3.72-5.56a2.76,2.76,0,0,0,.23-2.61l-.63-1.47a2.83,2.83,0,0,0-.58-.86L195.86,9.8l-1.72-6.28a2.69,2.69,0,0,0-2.57-2Z"/></svg>