<svg id="Layer_1" data-name="Layer 1" xmlns="http://www.w3.org/2000/svg" viewBox="0 0 244 153"><defs><style>.cls-1{fill:#08874d;}</style></defs><title>Icons</title><path class="cls-1" d="M182.05,32.41c5.39,0,15.7-4.32,15.7-11.09s-10.31-11.08-15.7-11.08h-4.53c-2-5.59-5.36-9.24-9.33-9.24H75.81c-4,0-7.38,3.65-9.33,9.24H62c-5.39,0-15.7,4.31-15.7,11.08S56.56,32.41,62,32.41h4.53c2,5.59,5.36,9.24,9.33,9.24H83.2v70.2H75.81c-4,0-7.38,3.65-9.33,9.24H62c-5.39,0-15.7,4.32-15.7,11.09S56.56,143.26,62,143.26h4.53c2,5.59,5.36,9.24,9.33,9.24h92.38c4,0,7.38-3.65,9.33-9.24h4.53c5.39,0,15.7-4.31,15.7-11.08s-10.31-11.09-15.7-11.09h-2.78V32.41ZM62,28.71c-4.41,0-12-3.65-12-7.39s7.59-7.39,12-7.39h9.24c1,0,2.77,2.81,2.77,7.39s-1.79,7.39-2.77,7.39ZM75.81,38c-1.92,0-4-2.07-5.4-5.54h.78c1.85,0,3.46-1.19,4.62-3.18a16,16,0,0,0,1.85-7.91,16,16,0,0,0-1.85-7.9c-1.16-2-2.77-3.18-4.62-3.18h-.78c1.45-3.48,3.48-5.54,5.4-5.54,3.5,0,7.39,6.82,7.39,16.62S79.31,38,75.81,38ZM62,139.57c-4.41,0-12-3.66-12-7.39s7.59-7.39,12-7.39h9.24c1,0,2.77,2.8,2.77,7.39s-1.79,7.39-2.77,7.39Zm13.86,9.23c-1.92,0-4-2.06-5.4-5.54h.78c1.85,0,3.46-1.19,4.62-3.18a17.81,17.81,0,0,0,0-15.81c-1.16-2-2.77-3.18-4.62-3.18h-.78c1.45-3.47,3.48-5.54,5.4-5.54,3.5,0,7.39,6.83,7.39,16.63S79.31,148.8,75.81,148.8Zm99.77-16.62c0,9.8-3.9,16.62-7.39,16.62H82.25c2.83-3.64,4.65-9.67,4.65-16.62V21.32c0-7-1.82-13-4.65-16.62h85.94c3.49,0,7.39,6.82,7.39,16.62Zm6.47-7.39c4.41,0,12,3.65,12,7.39s-7.59,7.39-12,7.39h-3.52a36.08,36.08,0,0,0,.74-7.39v-7.39ZM178.53,13.93h3.52c4.41,0,12,3.66,12,7.39s-7.59,7.39-12,7.39h-2.78V21.32A36.08,36.08,0,0,0,178.53,13.93Z"/><path class="cls-1" d="M159,36.1a8.31,8.31,0,0,0-5.77,2.26,4.9,4.9,0,0,1-6.94,0,8.51,8.51,0,0,0-11.55,0,4.89,4.89,0,0,1-6.93,0,8.5,8.5,0,0,0-11.54,0,4.88,4.88,0,0,1-6.92,0,8.36,8.36,0,0,0-5.78-2.26,1.85,1.85,0,0,0,0,3.7A4.79,4.79,0,0,1,107,41.24a8.52,8.52,0,0,0,11.54,0,4.88,4.88,0,0,1,6.92,0,8.54,8.54,0,0,0,11.55,0,4.89,4.89,0,0,1,6.93,0,8.54,8.54,0,0,0,11.55,0A4.84,4.84,0,0,1,159,39.8a1.85,1.85,0,1,0,0-3.7Z"/><path class="cls-1" d="M159,54.58a8.35,8.35,0,0,0-5.77,2.25,4.9,4.9,0,0,1-6.94,0,8.54,8.54,0,0,0-11.55,0,4.89,4.89,0,0,1-6.93,0,8.52,8.52,0,0,0-11.54,0,4.88,4.88,0,0,1-6.92,0,8.4,8.4,0,0,0-5.78-2.25,1.85,1.85,0,0,0,0,3.69A4.8,4.8,0,0,1,107,59.72a8.52,8.52,0,0,0,11.54,0,4.85,4.85,0,0,1,6.92,0,8.54,8.54,0,0,0,11.55,0,4.87,4.87,0,0,1,6.93,0,8.54,8.54,0,0,0,11.55,0A4.85,4.85,0,0,1,159,58.27a1.85,1.85,0,1,0,0-3.69Z"/><path class="cls-1" d="M159,73.05a8.31,8.31,0,0,0-5.77,2.26,4.9,4.9,0,0,1-6.94,0,8.51,8.51,0,0,0-11.55,0,4.89,4.89,0,0,1-6.93,0,8.5,8.5,0,0,0-11.54,0,4.88,4.88,0,0,1-6.92,0,8.36,8.36,0,0,0-5.78-2.26,1.85,1.85,0,0,0,0,3.7A4.79,4.79,0,0,1,107,78.19a8.5,8.5,0,0,0,11.54,0,4.88,4.88,0,0,1,6.92,0,8.51,8.51,0,0,0,11.55,0,4.89,4.89,0,0,1,6.93,0,8.51,8.51,0,0,0,11.55,0A4.88,4.88,0,0,1,159,76.75a1.85,1.85,0,1,0,0-3.7Z"/><path class="cls-1" d="M159,91.53a8.35,8.35,0,0,0-5.77,2.25,4.88,4.88,0,0,1-6.94,0,8.54,8.54,0,0,0-11.55,0,4.87,4.87,0,0,1-6.93,0,8.52,8.52,0,0,0-11.54,0,4.85,4.85,0,0,1-6.92,0,8.4,8.4,0,0,0-5.78-2.25,1.85,1.85,0,0,0,0,3.7A4.79,4.79,0,0,1,107,96.67a8.52,8.52,0,0,0,11.54,0,4.88,4.88,0,0,1,6.92,0,8.54,8.54,0,0,0,11.55,0,4.89,4.89,0,0,1,6.93,0,8.54,8.54,0,0,0,11.55,0A4.84,4.84,0,0,1,159,95.23a1.85,1.85,0,0,0,0-3.7Z"/><path class="cls-1" d="M159,110a8.35,8.35,0,0,0-5.77,2.25,4.9,4.9,0,0,1-6.94,0,8.54,8.54,0,0,0-11.55,0,4.89,4.89,0,0,1-6.93,0,8.52,8.52,0,0,0-11.54,0,4.88,4.88,0,0,1-6.92,0,8.4,8.4,0,0,0-5.78-2.25,1.85,1.85,0,0,0,0,3.69,4.83,4.83,0,0,1,3.47,1.44,8.5,8.5,0,0,0,11.54,0,4.88,4.88,0,0,1,6.92,0,8.51,8.51,0,0,0,11.55,0,4.89,4.89,0,0,1,6.93,0,8.51,8.51,0,0,0,11.55,0A4.88,4.88,0,0,1,159,113.7a1.85,1.85,0,1,0,0-3.69Z"/></svg>