<svg id="Layer_1" data-name="Layer 1" xmlns="http://www.w3.org/2000/svg" viewBox="0 0 244 153"><defs><style>.cls-1{fill:#fff;}</style></defs><title>Icons</title><path class="cls-1" d="M188.64,41.13C173.18,12.18,140.06-4.51,106.45,2.61A75.47,75.47,0,0,0,46.83,71.06c-19.39,9.33-28,18.16-26,26.75,1.72,8.58,13.49,13.24,34.59,14A75.56,75.56,0,0,0,121.91,152a68.23,68.23,0,0,0,15.7-1.72,75.5,75.5,0,0,0,59.62-68.45c16.44-7.85,28-17.18,26-26.75Q220.29,42.24,188.64,41.13ZM108.41,12.18a64.86,64.86,0,0,1,13.74-1.48,65.74,65.74,0,0,1,64.28,52,72.12,72.12,0,0,1,1.48,12.51c-14.48,6.38-35.09,13.5-61.83,19.14C102.52,99.28,80,102,61.79,102a52.9,52.9,0,0,1-3.68-12C50.26,54.62,73.08,19.78,108.41,12.18Zm-78,83.66c-.25-1.22,2.45-6.38,16.44-13.74A74.94,74.94,0,0,0,48.3,92.16a87.55,87.55,0,0,0,2.7,9.57C35.29,100.75,30.63,97.07,30.39,95.84Zm105.26,44.9a64.73,64.73,0,0,1-49.32-9.08A68,68,0,0,1,66.7,112c17.91-.49,39-3.19,61.09-7.86,16.44-3.43,39.75-9.81,59.13-17.66A66.1,66.1,0,0,1,135.65,140.74Zm61.58-70.17a69.18,69.18,0,0,0-1.47-9.81h0c-.74-3.44-1.72-6.63-2.7-9.82,15.7,1,20.12,4.66,20.61,5.89C214.16,59.53,208.76,64.44,197.23,70.57Z"/>
</svg>
