<svg id="Layer_1" data-name="Layer 1" xmlns="http://www.w3.org/2000/svg" viewBox="0 0 244 153"><defs><style>.cls-1{fill:#d81159;}</style></defs><title>Icons</title><path class="cls-1" d="M117.64,74.43l-10.53-59.7A230.57,230.57,0,0,1,54.64,30.32,230.48,230.48,0,0,1,0,33.62l10.53,59.7A54.38,54.38,0,0,0,117.64,74.43Zm-92.1-8.07c4.91-5.14,17.53-12.84,30.11-5.15l-2.84,4.64c-12-7.34-23.23,4.15-23.34,4.27Zm35.87,39.46a45.14,45.14,0,0,1-23.6-7.09L41,94.29h0c1.12.79,26.29,18,48.55-8.73l4.18,3.48C82.87,102.05,71.24,105.82,61.41,105.82ZM91.69,59c-12-7.34-23.23,4.15-23.35,4.27l-3.93-3.75c4.92-5.14,17.53-12.84,30.11-5.16Z"/><path class="cls-1" d="M189.36,30.32a230.57,230.57,0,0,1-52.47-15.59l-10.53,59.7A54.38,54.38,0,1,0,233.47,93.32L244,33.62A230.48,230.48,0,0,1,189.36,30.32ZM151.73,51.91l2-1.88c.46.47,11.39,11.58,23.35,4.27l2.84,4.64a21.31,21.31,0,0,1-11.25,3.25c-8.28,0-15.44-4.82-18.86-8.4ZM200.63,109c-22.28-26.77-47.49-9.47-48.55-8.72l-3.15-4.44c.3-.21,30.34-21,55.88,9.69ZM207.51,69c-8.29,0-15.45-4.81-18.87-8.4l3.93-3.76c.46.48,11.39,11.58,23.35,4.28l2.83,4.64A21.27,21.27,0,0,1,207.51,69Z"/></svg>