<svg id="Layer_1" data-name="Layer 1" xmlns="http://www.w3.org/2000/svg" viewBox="0 0 244 153"><defs><style>.cls-1{fill:#086277;}</style></defs><title>Icons</title><path class="cls-1" d="M71.11,67.28c-1,.59-1.66,2.34-1.35,4.92s3.32,15,5.52,19.51a34.33,34.33,0,0,0,8.47,10.67c1.27,1,1,1.37,1.61,2.56s2.38,5.11,3,5.64c.17.25.12.64.12,1.23V144.5s3.36,8.17,30.36,8.17,28.59-9.08,28.59-9.08-2.12-33.5-2.56-38.8-.16-5.75-.16-5.75a32.41,32.41,0,0,0,2-2.56c1.67-2.2,30.05-35.37,32-40.62,1.28-3.48.24-3.87-.83-5.68C176.33,47.54,167.25,24,158.7,18.42c-3.48-2.27-4.34.12-5.29.45-2.35.83-11.42,4.31-13.16,5.07s-8.77,3.86-13.17,4.92-9,1.36-9.75,2.87-1.43,7.94,1.74,10.14,8.77,3.78,12.86,3.93,13-4.69,14.75-5.82a1.31,1.31,0,0,0,1.06.23s1.51,7.86,3.78,9.9c0,0-10.4,2.38-13.61,4.5s-5.79,3-11,11-14.41,21.1-16.33,23.71S105.46,92,108.3,88s7-9.53,9.75-13.83,6.58-8.29,7-10.44-1.59-3.44-5.26-3.33a48.76,48.76,0,0,0-13.23,2.87,29.91,29.91,0,0,0-6.21,3.37c-1.81,1.36-5.48,5-8,7s-4.26,5.09-6.53,2.93c-1.48-1.41-6.86-4.48-9.24-6.52S72.69,66.41,71.11,67.28Z"/><path class="cls-1" d="M68.7,45.69c-1.6,1.27-6.28,5.48-2.77,9.37s9.54,9.65,12.6,11.58,7.79,5.18,9.68,4.91,3-1.74,3.82-2.64,2.76-2.54,2.91-3.63-1.62-3.79-2.65-5.37a69,69,0,0,0-7.18-9.27c-2.8-2.84-4.29-4.23-6.58-6.32C75.58,41.64,72.33,42.81,68.7,45.69Z"/><path class="cls-1" d="M85.78,28.78c-4.2,2.95-6.19,7.77-3.69,11.06s5.9,7.83,7.09,9.53,5.84,7.26,7.49,9,5.78,5,10.72,2.33,8.06-5.11,7.49-8.29-3-5.84-5-8.22-7-8.45-8.56-10.72a32.11,32.11,0,0,0-1.93-2.67C97.63,28.61,92.63,24,85.78,28.78Z"/><path class="cls-1" d="M106.28,12.2c-3.19,2.38-5.45,8.62-3.18,12.76s4.31,7.77,6.64,9.59,2.78,1.36,3-1.65,1-5,3.35-5.78,6.17-1.59,7.37-2.38,4.82-1.91,1.47-4.83c-1.24-1.08-3.8-4.2-5.16-5.78s-2.15-4-3.12-4.77S110.53,9,106.28,12.2Z"/><path class="cls-1" d="M131.28.93c-3.32,1.33-8.8,5.53-6,10.7s3.86,9,8.43,9a18.07,18.07,0,0,0,7.46-1.16c2.06-.66,9.39-3.42,6.85-7.77s-3.12-5.49-4.4-6.87S136.85-1.32,131.28.93Z"/><path class="cls-1" d="M120,54.77c-1.1,1.42-1.62,2.62,1.28,2.42a25.2,25.2,0,0,1,5.86,0c1.43.31,2.18-1.62,3.38-2.55a15.6,15.6,0,0,1,3.33-2.38c1.48-.66-2.33-2.62-4.62-3.19a24.89,24.89,0,0,0-6.71-.86c-1.19.2.1,2.91-.66,4.24A10.31,10.31,0,0,1,120,54.77Z"/></svg>