<svg id="Layer_1" data-name="Layer 1" xmlns="http://www.w3.org/2000/svg" viewBox="0 0 244 153"><defs><style>.cls-1{fill:#17a5c6;}</style></defs><title>Icons</title><path class="cls-1" d="M104.73.51C99,23.54,91.64,35,78.72,43.2l23.9,28.71a1.73,1.73,0,0,1-2.05,2.7l-8.69-3.72,2.43,8.58a1.73,1.73,0,0,1-3,1.56L65.22,50c-3.26,1.35-6.75,2.7-10.58,4V78.23l62.18,74.26V130c25.9-8.64,41.45-27.63,51.81-50.09Zm13.82,152c32.81-8.64,55.26-17.27,65.62-22.45V111.09c-16,12.74-46.42,28.86-65.62,36.22ZM122,9.14l-3.24,3.24,52.57,65.36a3.54,3.54,0,0,1,.43,3.62c-10.52,22.8-26.68,42.62-53.27,51.7l.06,3.89c27.63-6.91,48.35-31.09,67.35-53.54L122,9.14ZM75.69,45c-2.23,1.26-4.61,2.42-7.17,3.57L88.75,72.67,87.51,68.3a1.82,1.82,0,0,1,2.38-2l5.39,2.32ZM181.21,94.26c-16,18.54-39.73,38.59-62.66,46.14v3.45c25.9-6.9,50.08-24.17,70.81-41.44Z"/></svg>