<svg id="Layer_1" data-name="Layer 1" xmlns="http://www.w3.org/2000/svg" viewBox="0 0 96 96"><defs><style>.cls-1{fill:#fff;}</style></defs><title>Icons</title><path class="cls-1" d="M48,1.62A46.38,46.38,0,1,0,94.38,48,46.37,46.37,0,0,0,48,1.62ZM71.31,39.21c0,.46,0,.95,0,1.44,0,14.77-11.25,31.82-31.82,31.82a31.14,31.14,0,0,1-17.09-5.06,19.64,19.64,0,0,0,2.67.16A22.49,22.49,0,0,0,39,62.8,11.18,11.18,0,0,1,28.54,55a10.63,10.63,0,0,0,2.11.21,11,11,0,0,0,3-.4,11.19,11.19,0,0,1-9-11v-.14a10.88,10.88,0,0,0,5.06,1.39,11.11,11.11,0,0,1-5-9.3,11.23,11.23,0,0,1,1.51-5.61A31.71,31.71,0,0,0,49.25,41.9a10.18,10.18,0,0,1-.3-2.55A11.18,11.18,0,0,1,68.29,31.7,22.6,22.6,0,0,0,75.39,29a11.19,11.19,0,0,1-4.92,6.19,22.49,22.49,0,0,0,6.43-1.76A23,23,0,0,1,71.31,39.21Z"/></svg>