<svg id="Layer_1" data-name="Layer 1" xmlns="http://www.w3.org/2000/svg" viewBox="0 0 168 189"><defs><style>.cls-1{fill:#fff;}</style></defs><title>Icons</title><g id="ui-dome"><path class="cls-1" d="M133.24,15.15c0,1.17-.11,3.17.47,3.52,1.65,1.06,4.46,1.88,5.4,2.93.24.24,0,2.23-.7,2.12-4.46-.94-4.7-.94-8-.94-.24,0-.94-1.41-1.06-2.35,0-.59.82-1.17,1.06-2.11.47-1.53.11-8.81.23-13.74,0-1.05.12-1.52,1.17-1.52s1.18.7,1.18,1.52c.12,3.64.23,7.16.23,10.57Z"/><path class="cls-1" d="M151.32,52.59a13.65,13.65,0,0,1,3.76,0,.71.71,0,0,1,.58.36c.36.47.24,2.11.24,2.7,0,1.17-.59,1.76-.59,2.7.12,7.86.24,17.13-.12,18.78-.7,2.81-.58,3.28-1.76,3.4-.35,0-.7,0-.82-1.06a19.14,19.14,0,0,1-.23-3.16c0-3.29,0-11.63-.12-14.91-.12-2.94-.94-3.17-1.06-3.29s-.7-.35-.7-.82a10,10,0,0,1,.47-4.23,1,1,0,0,1,.35-.47Z"/><path class="cls-1" d="M157.31,87.57c-2.7,0-6.69.12-7.52-.35-.47-.35-.47-1-.47-2.58-.23-10,.12-19.84-.11-29.82,0-.82-.24-2.23-1.53-2.23-1.52,0-4.46-.11-4.69.12a.9.9,0,0,0-.47.47,10.23,10.23,0,0,0-.59,4.23c0,.35.23.7.82.82,1.41.35,2.23,1.17,2.23,3.28.12,7.52.24,22.19-.7,24.66-.47,1.17-2.7,2-3.41.7-.47-.94-.35-23-.35-32.05,0-1.64-.47-2.23-2.23-2.23h-6.46a.81.81,0,0,0-.7.59c-.47,1.29-.82,4.23-.47,4.58a1.21,1.21,0,0,0,.7.47c2.94.35,4.35,1.64,4.35,4.69.12,4.7.82,22.19-1.29,24.07-.82.7-4,.58-4.7.35a1.26,1.26,0,0,1-.82-1.06c-.59-5.28.23-31.46-.35-32.86a1.18,1.18,0,0,0-.94-.71c-.82-.23-4.7,0-5.52-.23-.12-.12-.47-.12-.47-.47a5.05,5.05,0,0,1,.35-2.7,1.07,1.07,0,0,1,.94-.36c11.51,0,27.94.12,34.16-.11.35,0,1.06-.12,1.18-.71a9.79,9.79,0,0,0,.35-3.05c-.12-.35-.24-.47-.59-.47-.7-.12-25.82,0-38.62-.23-.7,0-1.88.11-2.11-.47a5.74,5.74,0,0,1,.12-2.47c1.29-2.46,2.34-2,3.17-5.63.47-2.23-.24-4,.82-5.75,1.41-2.35,2.58-3.17,3.52-4.82A1.75,1.75,0,0,0,123,22.9a27.42,27.42,0,0,0-8.92,8.56c-2.23,3.76-3,7.87-4.58,11.86-.35,1.06-.94,1.29-2.58,1.41-.94.12-1.41,3.64-.71,4.11.12.11.36.11.47.23,1.41.35,2,2.11,2,3.76,0,0,.35,29.7-.47,32.87-.59,2.23-1.17,1.87-1.76,2.23a.79.79,0,0,0-.35.35,7.79,7.79,0,0,0-.36,2.93c.12.24.12.47.59.47h51.06c.47,0,.59-.11.83-.7a10.59,10.59,0,0,0,.35-2.47,1.2,1.2,0,0,0-1.29-.94Zm-43.67-1c-.94,1-1.76,1.41-1.76.23-.12-8.21,0-25.47.12-25.94.23-.94,1.52-1.41,2.11.12.7,1.76,1.06,23.94-.47,25.59Zm9,0c-.94,1-2.94,1.41-3.41.23-.7-1.88-.35-27.35-.23-27.82.23-.94,2-.82,2.58-.47,1.53,1.06,1.76,1.88,1.88,4.35.47,6.92.59,22.06-.82,23.71Z"/></g><g id="ui-wordmark"><path class="cls-1" d="M155.55,111.17c.35-.59.82-1.29,1.4-2.11.83-1.3,1.53-2.23,2.12-3.17a25.9,25.9,0,0,1,2.82-3.41H156.6l-.58,1.29h.82c.58,0,.82.12.82.47a3,3,0,0,1-.71,2l-3.16,4.69-4.7-8.33H132.42l-.35,3.87h1.53l.11-.94c0-.47.24-.7.71-1,.82-.59,2.81-.59,4.46-.59v14.2a3.68,3.68,0,0,1-.24,1.65,2.06,2.06,0,0,1-.58.94h5.75l.47-1.29h-.82a1.68,1.68,0,0,1-1.53-.59,1.75,1.75,0,0,1-.24-1.18V103.77c.83,0,3.76,0,4.35.47a14.3,14.3,0,0,1,1.88,2.35,19.79,19.79,0,0,0,1.29,2,24.76,24.76,0,0,1,2.46,4.46v4.69a4.66,4.66,0,0,1-.23,1.88,2.88,2.88,0,0,1-.71.94h5.87l.47-1.29h-.82a2,2,0,0,1-1.53-.47,1.81,1.81,0,0,1-.23-1.18s-.12-4.34,0-4.93a17.28,17.28,0,0,0,1.06-1.52Z"/><path class="cls-1" d="M118.45,110.11l-1.88-.82c-1.87-.82-3.52-1.76-3.28-3.4.47-3.06,7.16-3.53,6.57.47h1.76l.82-3.64a16.08,16.08,0,0,0-4.93-.71c-3.87,0-7.39,1.88-7,5,.24,2.23,2,3.29,4.23,4.23l1.87.82c2.12.94,3.88,1.88,3.88,3.75s-2,3.53-4.58,3.53c-3.52,0-4.7-1.06-4.7-1.06l-6.8-7.4c2.58-.47,4.46-2.23,4.34-4.57-.12-2.94-3.4-4-6.22-3.88H95l-.47,1.18h.7a1.14,1.14,0,0,1,1.06.47c.47.47.47,1.64.47,2.81v11.51a2.92,2.92,0,0,1-.83,2.23h5.4l.47-1.29H101c-1,0-1.41-.59-1.41-1.53v-14c2.94-.47,6,.35,6,2.94,0,2-2.11,3.4-5.4,3.52l9,10.21s4.93.35,6.34.35c4.22.12,7.75-2.35,7.75-5.87,0-2.7-2.35-3.87-4.82-4.93Z"/><path class="cls-1" d="M59.29,71.14H57.53l.12-.82a2.65,2.65,0,0,0-.71-2.47c-.82-.94-4.11-.82-6.22-.82V87.46a3.89,3.89,0,0,0,.35,1.88,2.56,2.56,0,0,0,2.23.82h.83l-.47,1.29H46.73a5.12,5.12,0,0,0,.59-1.06,6,6,0,0,0,.35-2.46V67c-2.23,0-5.17,0-6.34.94-.7.59-1.06.94-1.06,1.76l-.11,1.06H38.51l.59-5.17H60.35l-1.06,5.52Z"/><path class="cls-1" d="M77.84,91.33H72.67a5,5,0,0,0,.47-2.11V81.59a5.1,5.1,0,0,1-2.58.7c-.82,0-1.76.12-2.7.12-1.64.12-2.47.12-4,.12v6.1c0,1.06.35,1.53,1.52,1.53h.71l-.47,1.29h-5.4a5.36,5.36,0,0,0,.7-2.35V76.89c0-.58.12-1.64-.35-2.11s-.7-.35-1.29-.35h-.7l.47-1.29H64c-.12.35-.24.47-.24.7a15.42,15.42,0,0,0-.12,2.35v4.46h9.28V76.89c0-.58.11-1.64-.36-2.11-.23-.35-.7-.35-1.17-.35h-.7l.58-1.29h4.93c.12.47,0,.47,0,.82a17.61,17.61,0,0,0-.11,2.35V88.63c0,1.06.35,1.53,1.64,1.53h.82l-.7,1.17Z"/><path class="cls-1" d="M93.1,91.33H80.18a3.82,3.82,0,0,0,.71-1.17A6.59,6.59,0,0,0,81,88V77.6A9.48,9.48,0,0,0,80.77,75a1.34,1.34,0,0,0-1.29-.7h-.7l.47-1.17H92.63l-.59,4H90.4A2.59,2.59,0,0,0,89.81,75c-.59-.58-2.23-.7-3.87-.7a6.34,6.34,0,0,0-2.12.23v6.11H91.1c-.47,1.29-1.41,1.52-2.7,1.64-.58,0-1.05.12-1.76.12a23.85,23.85,0,0,1-2.93,0v5.4a3,3,0,0,0,.47,1.64c.35.35,1.64.47,2.93.47s2.58,0,3.4-.94a3.56,3.56,0,0,0,1.06-2h1.88l-.35,4.34Z"/><path class="cls-1" d="M28.89,120.68H23v-2.35c-4,2.11-7.87,3.64-12.33,2.35-5.16-1.53-4.81-7.63-4.93-13,0-4.11,1.06-9.16.35-10.57a2.22,2.22,0,0,0-1.87-1H3.53l.35-1.3h6.46A3,3,0,0,0,9.87,96a83.4,83.4,0,0,0-1.06,12.09c0,4.81.36,9.15,4.58,10.33,3.64,1,6.69,0,9.51-1.88V99.2c0-1.06,0-1.88-.82-2.47a2.76,2.76,0,0,0-1.88-.59h-.35l.35-1.29h6.46a4.21,4.21,0,0,0-.59,1.53A11.58,11.58,0,0,0,26,99.2v16.43c0,1.29,0,2.46,1.06,3.17a2.76,2.76,0,0,0,1.88.59h.47l-.47,1.29Z"/><path class="cls-1" d="M48.14,103.77a19,19,0,0,0-.24,2.7v14.09H45.67A3.06,3.06,0,0,0,45,119a16.09,16.09,0,0,0-1.06-1.52l-10-11.62V116a6.9,6.9,0,0,0,.35,2.7,1.49,1.49,0,0,0,1.29.59h.7l-.47,1.29H30.65a3.06,3.06,0,0,0,.82-1.29,6.6,6.6,0,0,0,.35-2.58V106.12c0-.59,0-1.76-.47-2.23-.23-.35-.7-.35-1.17-.35h-.71l.47-1.18h5.17a6,6,0,0,0,1.64,2.47l9.16,10.68v-9.15a3.72,3.72,0,0,0-.47-2.47,1.38,1.38,0,0,0-1.17-.47h-.71l.47-1.17h4.7a14.49,14.49,0,0,1-.59,1.52Z"/><path class="cls-1" d="M58,120.68H52.25a3.48,3.48,0,0,0,.82-2.7V105.42a1.83,1.83,0,0,0-.35-1.41,1.3,1.3,0,0,0-1.06-.47h-.59l.47-1.18h5.17a4.68,4.68,0,0,0-.59.94,6.68,6.68,0,0,0-.23,2.35v12a3,3,0,0,0,.23,1.18,1.73,1.73,0,0,0,1.41.47h.82L58,120.68Z"/><path class="cls-1" d="M74.67,107.06c-.71,1.41-1.29,2.93-2.12,4.81-1.4,3.06-2.81,6.69-2.93,8.92H67.27c-.23-1.64-1.88-5.86-3.28-9.39a39.39,39.39,0,0,0-3.53-6.92,1.78,1.78,0,0,0-1.4-.82h-.71l.35-1.18h4.58l5.64,13.74,4.22-10a3.17,3.17,0,0,0,.35-1.88,1.16,1.16,0,0,0-1.17-.7h-.7l.35-1.18H77.6a22.31,22.31,0,0,0-2.93,4.58Z"/><path class="cls-1" d="M92.86,120.68H80a4,4,0,0,0,.7-1.18,6.26,6.26,0,0,0,.12-2.11V106.94a9.84,9.84,0,0,0-.23-2.58,1.35,1.35,0,0,0-1.29-.7h-.71l.47-1.18H92.39l-.58,4H90.16a2.53,2.53,0,0,0-.58-2.11c-.59-.59-2.23-.7-3.88-.7a6.25,6.25,0,0,0-2.11.23V110h7.28c-.47,1.3-1.41,1.53-2.7,1.65-.59,0-1.06.12-1.76.12a26.19,26.19,0,0,1-2.94,0v5.4a3.1,3.1,0,0,0,.47,1.64c.35.35,1.64.47,2.94.47s2.58,0,3.4-.94a3.69,3.69,0,0,0,1.06-2h1.87l-.35,4.35Z"/><path class="cls-1" d="M131.48,120.68h-5.75a4.27,4.27,0,0,0,.59-.94,4.37,4.37,0,0,0,.23-1.76V105.42a1.83,1.83,0,0,0-.35-1.41,1.28,1.28,0,0,0-1.06-.47h-.58l.47-1.18h5.16a4.68,4.68,0,0,0-.59.94,6.68,6.68,0,0,0-.23,2.35v12a3.15,3.15,0,0,0,.23,1.18,1.74,1.74,0,0,0,1.41.47h.82l-.35,1.41Z"/><path class="cls-1" d="M64.46,140.28c.82,4.11-1.3,8.22-5.64,9s-8-2.47-8.8-6.69.94-8.34,5.4-9.16,8.21,2.7,9,6.81Zm3.28,0c-.7-5.28-5.28-9-11.74-8.1-6.22.82-9.74,5.17-9,10.68.71,5.29,5,8.81,11.39,8s10.1-5.28,9.39-10.56Z"/><path class="cls-1" d="M81.24,136.29H79.6a2.72,2.72,0,0,0-.71-2.11c-.47-.59-1.87-.71-3.4-.71a6,6,0,0,0-2.11.24v6.1h7.27a2.35,2.35,0,0,1-.93,1.41,11.77,11.77,0,0,1-3.29.47,25.84,25.84,0,0,1-3.05,0v5.75a2.6,2.6,0,0,0,.47,1.53,1.88,1.88,0,0,0,1.29.47h.94a11.53,11.53,0,0,0-.36,1.29H69.86a4.05,4.05,0,0,0,.7-1.18,6.33,6.33,0,0,0,.12-2.11V137a10.33,10.33,0,0,0-.24-2.7,1.46,1.46,0,0,0-1.41-.58h-.7l.47-1.18h13l-.59,3.76Z"/><path class="cls-1" d="M99.32,150.73H92.39a4.69,4.69,0,0,0,.59-1.06,6,6,0,0,0,.35-2.46V129a2.67,2.67,0,0,0-.47-2,2.13,2.13,0,0,0-1.64-.71h-.47L91.1,125h6.22a6.43,6.43,0,0,0-.58.94,10.34,10.34,0,0,0-.47,3.64V147a4,4,0,0,0,.35,1.88,2.56,2.56,0,0,0,2.23.82h.94l-.47,1.06Z"/><path class="cls-1" d="M117.87,140.28c.82,4.11-1.3,8.22-5.64,9s-8-2.47-8.8-6.69.94-8.34,5.4-9.16a8.08,8.08,0,0,1,9,6.81Zm3.28,0c-.7-5.28-5.28-9-11.74-8.1-6.22.82-9.74,5.17-9,10.68.7,5.29,5,8.81,11.38,8s10.1-5.28,9.39-10.56Z"/><path class="cls-1" d="M146.16,137c-.71,1.41-1.3,2.94-2.12,4.82-1.41,3.17-2.46,6.8-2.46,8.92h-2.35c-.24-1.65-1.64-5.28-2.93-8.92a14.12,14.12,0,0,0-.83-2c-.35.7-.7,1.29-1.41,2.82a26.35,26.35,0,0,0-2.46,8.21h-2.47c-.23-1.64-1.87-5.86-3.28-9.39a40.68,40.68,0,0,0-3.52-6.92,1.81,1.81,0,0,0-1.41-.82h-.59l.35-1.18h4.7l5.28,13.85c.82-1.76,3.64-8.33,3.64-8.45a15.14,15.14,0,0,0-1.76-3.52c-.47-.47-.82-.82-1.41-.82h-.7l.47-1.17h4.69c1.53,3.87,3.76,10.09,4.93,13.61l3.87-9.62c.36-.83.71-1.88.47-2.12a1.16,1.16,0,0,0-1.17-.7H143l.35-1.17H149a20,20,0,0,0-2.81,4.57Z"/><path class="cls-1" d="M156.37,142.28a27.19,27.19,0,0,1-5.28-.12l2.7-6.69,2.58,6.81Zm8.1,7h-.71a1.81,1.81,0,0,1-1.41-.82c-.58-.59-2.11-4.23-3.28-7.05a72.14,72.14,0,0,1-3.17-9.27h-4.11c.94,1.88-.7,5.64-2.11,8.8a41.3,41.3,0,0,1-5.29,9.63h5.87l.36-1.29h-.71a1.08,1.08,0,0,1-1.17-.71,4.26,4.26,0,0,1,.35-1.87l1.17-2.7h4.23a2.75,2.75,0,0,0,2.23-.83l2.7,7.52H164l.47-1.41Z"/></g><g id="uilibraries-wordmark"><path class="cls-1" d="M14.57,160.59v22.18H22.9v2.94H8.7V160.59Z"/><path class="cls-1" d="M31.82,160.71v25h-6.1v-25Z"/><path class="cls-1" d="M47,160.71a6.12,6.12,0,0,1,4.23,1.64,5.1,5.1,0,0,1,1.76,4,8.31,8.31,0,0,1-.23,1.64,5.29,5.29,0,0,1-2.23,2.82,9.24,9.24,0,0,1-3.64,1.41l.11.35a7.07,7.07,0,0,1,4.58,1.64,5.15,5.15,0,0,1,1.88,4.23,7.16,7.16,0,0,1-2.11,5.28,6.91,6.91,0,0,1-5.17,2.12H35.93v-25H47Zm-5.28,2v8.92h2.23A3.59,3.59,0,0,0,46.5,170a5.57,5.57,0,0,0,.93-3,4.64,4.64,0,0,0-1-3.06,3.67,3.67,0,0,0-2.94-1.29Zm0,21.25H43.8a3.75,3.75,0,0,0,2.93-1.65A6,6,0,0,0,47.79,179a6.37,6.37,0,0,0-.94-3.29,4.27,4.27,0,0,0-2.7-2H41.68Z"/><path class="cls-1" d="M68.21,160.71a5.46,5.46,0,0,1,4.23,1.87,6.13,6.13,0,0,1,1,7.16,6,6,0,0,1-2,2.23,12.88,12.88,0,0,1-3.17,1.41l7.86,12.33H69.62L63.05,174.2h-.24v11.51H57.18v-25Zm-5.52,11.85h.83c2.7,0,4.22-.7,4.46-2.23s.47-2.35.47-2.58v-.47A5.29,5.29,0,0,0,67.39,164a3.4,3.4,0,0,0-2.93-1.41H62.69Z"/><path class="cls-1" d="M89.11,160.35c1.17,3.06,2.34,6.11,3.52,9s2.23,5.75,3.4,8.45,2.11,5.29,3.29,7.87H93.21l-2.58-7.4H82l-2.59,7.4H76l10.45-25.36ZM82.88,176h6.7l-3.17-8.34Z"/><path class="cls-1" d="M112.35,160.71a5.44,5.44,0,0,1,4.22,1.87,6.11,6.11,0,0,1,1.06,7.16,6,6,0,0,1-2,2.23,12.88,12.88,0,0,1-3.17,1.41l7.86,12.33h-6.57l-6.58-11.51H107v11.51h-5.64v-25ZM107,172.56h.82c2.7,0,4.23-.7,4.46-2.23s.47-2.35.47-2.58v-.47a5.23,5.23,0,0,0-1.06-3.29,3.4,3.4,0,0,0-2.93-1.41H107Z"/><path class="cls-1" d="M128.78,160.71v25h-6.1v-25Z"/><path class="cls-1" d="M147.09,160.71v3h-8.45v7.51H147v2.58h-8.34V183h8.45v2.82h-14.2v-25h14.2Z"/><path class="cls-1" d="M156.84,160.24a13.15,13.15,0,0,1,5.16,1,2.43,2.43,0,0,1,.94.71l-1.05,3.4a.75.75,0,0,1-.71,0,5.06,5.06,0,0,0-4.46-3.05,3.88,3.88,0,0,0-1.17.12c-.36.11-.71.23-1.18.35A3.63,3.63,0,0,0,153.2,164a3.06,3.06,0,0,0-.35,1.41,3.59,3.59,0,0,0,.58,1.88A4.73,4.73,0,0,0,155,168.8l6.1,3.29a5.92,5.92,0,0,1,2.23,2.58,7,7,0,0,1,.71,3.17,8,8,0,0,1-1.65,4.93,6.2,6.2,0,0,1-3.87,2.7,15.22,15.22,0,0,1-3.76.47,13.82,13.82,0,0,1-6.22-1.41l.94-4.57h.82a4.25,4.25,0,0,0,1.88,2.81,5.13,5.13,0,0,0,3.17,1.06,5.28,5.28,0,0,0,2.35-.59,4.57,4.57,0,0,0,1.76-1.87,4.94,4.94,0,0,0,.23-1.3,3.34,3.34,0,0,0-.46-1.76,5.46,5.46,0,0,0-1.3-1.52,56.09,56.09,0,0,0-5.87-3.17,7.57,7.57,0,0,1-3.4-6.22,6.68,6.68,0,0,1,1.06-3.76,6.42,6.42,0,0,1,2.34-2.35,11.59,11.59,0,0,1,3.06-1.17A8.64,8.64,0,0,0,156.84,160.24Z"/></g></svg>