<svg id="Layer_1" data-name="Layer 1" xmlns="http://www.w3.org/2000/svg" viewBox="0 0 244 153"><defs><style>.cls-1{fill:#fff;}</style></defs><title>Icons</title><path class="cls-1" d="M121.93,14.2,226.14,51.71,124.48,87,18.17,51.55,121.93,14.2m0-6.38L-.15,51.77,124.52,93.32l119.63-41.5-122.22-44Z"/><path class="cls-1" d="M55.12,82l67.53,22.51,1.94.64,1.92-.67,62.23-21.59v37.3c-16.52,12.07-40.84,19-66.81,19s-50.28-6.91-66.81-19V82m-6-8.33v46.89a5.21,5.21,0,0,0,2.11,4.22c17.17,12.69,42.47,20.4,70.7,20.4s53.53-7.71,70.7-20.4a5.21,5.21,0,0,0,2.11-4.22V74.46L124.55,98.81,49.12,73.67Z"/><path class="cls-1" d="M228.53,118.08c2.1,5,2.26,9.3.49,12.83-.1.2-.21.4-.32.59-3.34-5.77-.87-11.9-.17-13.42m5.22-57.15-10.4,3.61V115s-7.81,14.84,5.2,25.24c0,0,13-7.8,5.2-25.24V60.93Z"/></svg>