<svg id="Layer_1" data-name="Layer 1" xmlns="http://www.w3.org/2000/svg" viewBox="0 0 244 153"><defs><style>.cls-1{fill:#26375e;}</style></defs><title>War Diaries - Color</title><path class="cls-1" d="M239.6,4.28s0-.06,0-.09a4.24,4.24,0,0,0-.19-1.13s0-.09,0-.13a.59.59,0,0,0,0-.08,4.19,4.19,0,0,0-.55-1c0-.06-.09-.11-.13-.16a4.2,4.2,0,0,0-.77-.75l-.12-.1a4.15,4.15,0,0,0-1-.52l-.24-.08a4.42,4.42,0,0,0-1.2-.19H8.71a4.42,4.42,0,0,0-1.2.19L7.27.27a4.15,4.15,0,0,0-1,.52l-.12.1a4.2,4.2,0,0,0-.77.75c0,.05-.09.1-.13.16a4.37,4.37,0,0,0-.55,1.05s0,0,0,.08,0,.09,0,.13a4.24,4.24,0,0,0-.19,1.13s0,.06,0,.09v144.4A4.31,4.31,0,0,0,8.71,153H235.29a4.31,4.31,0,0,0,4.31-4.32V4.28Zm-17,4.35L122,85.88,21.42,8.63ZM13,144.37V13.07L119.37,94.75a4.29,4.29,0,0,0,5.26,0L231,13.08V144.37Z"/></svg>