<svg xmlns="http://www.w3.org/2000/svg" xmlns:xlink="http://www.w3.org/1999/xlink" preserveAspectRatio="xMidYMid" width="489.343" height="29.688" viewBox="0 0 489.343 29.688">
  <defs>
    <style>
      .cls-1 {
        fill: #000;
        fill-rule: evenodd;
      }
    </style>
  </defs>
  <path d="M489.354,24.970 L489.354,29.286 L475.526,29.286 L475.526,0.400 L488.807,0.400 L488.807,4.716 L480.487,4.716 L480.487,12.177 L486.893,12.177 L486.893,16.493 L480.487,16.493 L480.487,24.970 L489.354,24.970 ZM461.851,29.286 L455.721,0.400 L460.682,0.400 L464.286,20.439 L464.364,20.439 L467.948,0.400 L472.909,0.400 L466.798,29.286 L461.851,29.286 ZM447.342,0.400 L452.303,0.400 L452.303,29.286 L447.342,29.286 L447.342,0.400 ZM436.893,16.493 L431.620,16.493 L431.620,29.286 L426.659,29.286 L426.659,0.400 L431.620,0.400 L431.620,12.177 L436.893,12.177 L436.893,0.400 L441.854,0.400 L441.854,29.286 L436.893,29.286 L436.893,16.493 ZM414.256,29.677 C411.783,29.677 409.898,28.987 408.602,27.607 C407.306,26.227 406.659,24.456 406.659,22.294 L406.659,7.411 C406.659,5.250 407.306,3.476 408.602,2.089 C409.898,0.702 411.783,0.009 414.256,0.009 C416.626,0.009 418.446,0.755 419.715,2.245 C420.985,3.737 421.620,5.628 421.620,7.919 L421.620,10.048 L416.659,10.048 L416.659,7.802 C416.659,6.656 416.431,5.790 415.975,5.204 C415.519,4.618 414.947,4.325 414.256,4.325 C413.292,4.325 412.613,4.579 412.215,5.087 C411.818,5.595 411.620,6.409 411.620,7.529 L411.620,22.157 C411.620,23.278 411.818,24.091 412.215,24.599 C412.613,25.107 413.292,25.361 414.256,25.361 C415.142,25.361 415.763,25.123 416.122,24.648 C416.480,24.173 416.659,23.440 416.659,22.450 L416.659,18.974 L421.620,18.974 L421.620,22.294 C421.620,24.456 420.985,26.227 419.715,27.607 C418.446,28.987 416.626,29.677 414.256,29.677 ZM397.694,29.286 L394.187,17.333 C393.546,17.411 392.691,17.450 391.620,17.450 L391.620,29.286 L386.659,29.286 L386.659,0.400 L393.612,0.400 C396.463,0.400 398.576,1.067 399.950,2.402 C401.324,3.737 402.010,5.914 402.010,8.935 C402.010,12.762 400.828,15.192 398.462,16.223 L402.655,29.286 L397.694,29.286 ZM396.229,5.448 C395.682,4.804 394.732,4.482 393.377,4.482 L391.620,4.482 L391.620,13.368 L393.377,13.368 C394.732,13.368 395.682,13.050 396.229,12.411 C396.776,11.774 397.049,10.615 397.049,8.935 C397.049,7.255 396.776,6.093 396.229,5.448 ZM378.062,22.880 L372.599,22.880 L371.717,29.286 L366.991,29.286 L372.246,0.400 L378.416,0.400 L383.670,29.286 L378.944,29.286 L378.062,22.880 ZM375.379,6.161 L375.301,6.161 L373.324,18.564 L377.337,18.564 L375.379,6.161 ZM351.441,22.880 L345.978,22.880 L345.096,29.286 L340.370,29.286 L345.624,0.400 L351.794,0.400 L357.049,29.286 L352.323,29.286 L351.441,22.880 ZM348.758,6.161 L348.680,6.161 L346.703,18.564 L350.716,18.564 L348.758,6.161 ZM329.647,29.286 L322.284,29.286 L322.284,0.400 L329.647,0.400 C334.869,0.400 337.479,3.310 337.479,9.130 L337.479,20.575 C337.479,26.383 334.869,29.286 329.647,29.286 ZM332.518,21.161 L332.518,8.525 C332.518,7.001 332.257,5.947 331.737,5.361 C331.216,4.775 330.291,4.482 328.963,4.482 L327.245,4.482 L327.245,25.204 L328.963,25.204 C330.291,25.204 331.216,24.911 331.737,24.325 C332.257,23.740 332.518,22.685 332.518,21.161 ZM313.687,22.880 L308.224,22.880 L307.342,29.286 L302.616,29.286 L307.871,0.400 L314.041,0.400 L319.295,29.286 L314.569,29.286 L313.687,22.880 ZM311.004,6.161 L310.926,6.161 L308.949,18.564 L312.962,18.564 L311.004,6.161 ZM291.893,29.286 L284.530,29.286 L284.530,0.400 L291.893,0.400 C297.115,0.400 299.725,3.310 299.725,9.130 L299.725,20.575 C299.725,26.383 297.115,29.286 291.893,29.286 ZM294.764,21.161 L294.764,8.525 C294.764,7.001 294.503,5.947 293.983,5.361 C293.462,4.775 292.538,4.482 291.209,4.482 L289.491,4.482 L289.491,25.204 L291.209,25.204 C292.538,25.204 293.462,24.911 293.983,24.325 C294.503,23.740 294.764,22.685 294.764,21.161 ZM265.150,0.400 L268.275,0.400 L268.275,26.650 L277.630,26.650 L277.630,29.286 L265.150,29.286 L265.150,0.400 ZM257.318,20.732 L249.955,20.732 L248.236,29.286 L245.111,29.286 L251.478,0.400 L255.794,0.400 L262.162,29.286 L259.037,29.286 L257.318,20.732 ZM253.685,2.568 L253.607,2.568 L250.404,18.095 L256.888,18.095 L253.685,2.568 ZM230.228,4.169 L230.130,4.169 L230.130,29.286 L227.005,29.286 L227.005,0.400 L231.904,0.400 L239.310,21.689 L239.408,21.689 L239.408,0.400 L242.533,0.400 L242.533,29.286 L239.154,29.286 L230.228,4.169 ZM220.677,26.308 C219.960,27.499 219.101,28.359 218.099,28.886 C217.096,29.413 215.983,29.677 214.759,29.677 C213.535,29.677 212.421,29.413 211.419,28.886 C210.416,28.359 209.557,27.499 208.841,26.308 C208.124,25.116 207.572,23.583 207.181,21.708 C206.791,19.833 206.595,17.548 206.595,14.853 C206.595,12.157 206.791,9.869 207.181,7.988 C207.572,6.106 208.124,4.573 208.841,3.388 C209.557,2.203 210.416,1.344 211.419,0.810 C212.421,0.276 213.535,0.009 214.759,0.009 C215.983,0.009 217.096,0.276 218.099,0.810 C219.101,1.344 219.960,2.203 220.677,3.388 C221.393,4.573 221.947,6.106 222.337,7.988 C222.728,9.869 222.923,12.157 222.923,14.853 C222.923,17.548 222.728,19.833 222.337,21.708 C221.947,23.583 221.393,25.116 220.677,26.308 ZM219.398,8.818 C219.130,7.242 218.769,5.992 218.314,5.068 C217.858,4.143 217.324,3.509 216.712,3.163 C216.100,2.819 215.449,2.646 214.759,2.646 C214.069,2.646 213.417,2.819 212.806,3.163 C212.194,3.509 211.660,4.143 211.205,5.068 C210.749,5.992 210.387,7.239 210.121,8.808 C209.853,10.377 209.720,12.392 209.720,14.853 C209.720,17.301 209.853,19.313 210.121,20.888 C210.387,22.464 210.749,23.710 211.205,24.628 C211.660,25.546 212.194,26.178 212.806,26.523 C213.417,26.868 214.069,27.040 214.759,27.040 C215.449,27.040 216.100,26.868 216.712,26.523 C217.324,26.178 217.858,25.546 218.314,24.628 C218.769,23.710 219.130,22.464 219.398,20.888 C219.665,19.313 219.798,17.301 219.798,14.853 C219.798,12.405 219.665,10.393 219.398,8.818 ZM198.763,0.400 L201.888,0.400 L201.888,29.286 L198.763,29.286 L198.763,0.400 ZM189.662,29.286 L186.537,29.286 L186.537,3.056 L180.619,3.056 L180.619,0.400 L195.580,0.400 L195.580,3.056 L189.662,3.056 L189.662,29.286 ZM178.353,29.286 L176.634,20.732 L169.271,20.732 L167.552,29.286 L164.427,29.286 L170.794,0.400 L175.111,0.400 L181.478,29.286 L178.353,29.286 ZM173.001,2.568 L172.923,2.568 L169.720,18.095 L176.205,18.095 L173.001,2.568 ZM149.544,4.169 L149.447,4.169 L149.447,29.286 L146.322,29.286 L146.322,0.400 L151.220,0.400 L158.626,21.689 L158.724,21.689 L158.724,0.400 L161.849,0.400 L161.849,29.286 L158.470,29.286 L149.544,4.169 ZM138.548,29.286 L133.919,15.615 L129.837,15.771 L129.837,29.286 L126.712,29.286 L126.712,0.400 L133.685,0.400 C134.857,0.400 135.921,0.569 136.878,0.907 C137.835,1.246 138.668,1.735 139.378,2.372 C140.087,3.010 140.634,3.788 141.019,4.706 C141.403,5.624 141.595,6.682 141.595,7.880 C141.595,9.508 141.220,10.956 140.472,12.226 C139.723,13.495 138.548,14.410 136.947,14.970 L141.830,29.286 L138.548,29.286 ZM137.191,11.767 C138.043,10.907 138.470,9.671 138.470,8.056 C138.470,6.428 138.043,5.188 137.191,4.335 C136.337,3.483 134.791,3.056 132.552,3.056 L129.837,3.056 L129.837,13.056 L132.552,13.056 C134.791,13.056 136.337,12.626 137.191,11.767 ZM108.958,0.400 L122.162,0.400 L122.162,3.056 L112.083,3.056 L112.083,12.880 L119.525,12.880 L119.525,15.517 L112.083,15.517 L112.083,26.650 L122.650,26.650 L122.650,29.286 L108.958,29.286 L108.958,0.400 ZM100.091,29.286 L96.966,29.286 L96.966,3.056 L91.048,3.056 L91.048,0.400 L106.009,0.400 L106.009,3.056 L100.091,3.056 L100.091,29.286 ZM76.244,4.169 L76.146,4.169 L76.146,29.286 L73.021,29.286 L73.021,0.400 L77.919,0.400 L85.326,21.689 L85.423,21.689 L85.423,0.400 L88.548,0.400 L88.548,29.286 L85.169,29.286 L76.244,4.169 ZM64.779,0.400 L67.904,0.400 L67.904,29.286 L64.779,29.286 L64.779,0.400 ZM37.923,0.400 L51.126,0.400 L51.126,3.056 L41.048,3.056 L41.048,12.880 L48.490,12.880 L48.490,15.517 L41.048,15.517 L41.048,26.650 L51.615,26.650 L51.615,29.286 L37.923,29.286 L37.923,0.400 ZM29.525,15.517 L21.048,15.517 L21.048,29.286 L17.923,29.286 L17.923,0.400 L21.048,0.400 L21.048,12.880 L29.525,12.880 L29.525,0.400 L32.650,0.400 L32.650,29.286 L29.525,29.286 L29.525,15.517 ZM9.056,29.286 L5.931,29.286 L5.931,3.056 L0.013,3.056 L0.013,0.400 L14.974,0.400 L14.974,3.056 L9.056,3.056 L9.056,29.286 Z" class="cls-1"/>
</svg>
